<?xml version="1.0" encoding="UTF-8"?>
<svg width="917px" height="198px" viewBox="0 0 917 198" version="1.1" xmlns="http://www.w3.org/2000/svg" xmlns:xlink="http://www.w3.org/1999/xlink">
    <!-- Generator: Sketch 50.2 (55047) - http://www.bohemiancoding.com/sketch -->
    <title>Group 12</title>
    <desc>Created with Sketch.</desc>
    <defs></defs>
    <g id="Welcome" stroke="none" stroke-width="1" fill="none" fill-rule="evenodd">
        <g id="Desktop" transform="translate(-91.000000, -45.000000)">
            <g id="Group-12" transform="translate(92.000000, 45.000000)">
                <path d="M692.5,154 C724.256373,154 750,129.375661 750,99 C750,68.6243388 724.256373,44 692.5,44 C660.743627,44 635,68.6243388 635,99 C635,129.375661 660.743627,154 692.5,154 Z" id="Oval-2" stroke="#979797" stroke-dasharray="5,5"></path>
                <g id="Group-13" transform="translate(650.000000, 69.000000)" fill="#000000" fill-rule="nonzero">
                    <g id="Group" transform="translate(41.000000, 30.000000)">
                        <path d="M27.5907018,2.28148148 C27.3447953,2.28148148 27.1480702,2.07407407 27.1480702,1.81481481 L27.1480702,0.622222222 C27.1480702,0.362962963 27.3447953,0.155555556 27.5907018,0.155555556 C27.8366082,0.155555556 28.0333333,0.362962963 28.0333333,0.622222222 L28.0333333,1.81481481 C28.0333333,2.02222222 27.8366082,2.28148148 27.5907018,2.28148148 Z" id="Shape"></path>
                        <path d="M27.5907018,23.7481481 C27.3447953,23.7481481 27.1480702,23.5407407 27.1480702,23.2814815 L27.1480702,20.5851852 C27.1480702,20.3259259 27.3447953,20.1185185 27.5907018,20.1185185 C27.8366082,20.1185185 28.0333333,20.3259259 28.0333333,20.5851852 L28.0333333,23.2814815 C28.0333333,23.4888889 27.8366082,23.7481481 27.5907018,23.7481481 Z M27.5907018,18.3555556 C27.3447953,18.3555556 27.1480702,18.1481481 27.1480702,17.8888889 L27.1480702,15.1925926 C27.1480702,14.9333333 27.3447953,14.7259259 27.5907018,14.7259259 C27.8366082,14.7259259 28.0333333,14.9333333 28.0333333,15.1925926 L28.0333333,17.8888889 C28.0333333,18.1481481 27.8366082,18.3555556 27.5907018,18.3555556 Z M27.5907018,13.0148148 C27.3447953,13.0148148 27.1480702,12.8074074 27.1480702,12.5481481 L27.1480702,9.85185185 C27.1480702,9.59259259 27.3447953,9.38518519 27.5907018,9.38518519 C27.8366082,9.38518519 28.0333333,9.59259259 28.0333333,9.85185185 L28.0333333,12.5481481 C28.0333333,12.7555556 27.8366082,13.0148148 27.5907018,13.0148148 Z M27.5907018,7.62222222 C27.3447953,7.62222222 27.1480702,7.41481481 27.1480702,7.15555556 L27.1480702,4.45925926 C27.1480702,4.2 27.3447953,3.99259259 27.5907018,3.99259259 C27.8366082,3.99259259 28.0333333,4.2 28.0333333,4.45925926 L28.0333333,7.15555556 C28.0333333,7.41481481 27.8366082,7.62222222 27.5907018,7.62222222 Z" id="Shape"></path>
                        <path d="M27.5907018,27.637037 L26.4595322,27.637037 C26.2136257,27.637037 26.0169006,27.4296296 26.0169006,27.1703704 C26.0169006,26.9111111 26.2136257,26.7037037 26.4595322,26.7037037 L27.1480702,26.7037037 L27.1480702,25.9259259 C27.1480702,25.6666667 27.3447953,25.4592593 27.5907018,25.4592593 C27.8366082,25.4592593 28.0333333,25.6666667 28.0333333,25.9259259 L28.0333333,27.1185185 C28.0333333,27.4296296 27.8366082,27.637037 27.5907018,27.637037 Z" id="Shape"></path>
                        <path d="M24.197193,27.637037 L21.9840351,27.637037 C21.7381287,27.637037 21.5414035,27.4296296 21.5414035,27.1703704 C21.5414035,26.9111111 21.7381287,26.7037037 21.9840351,26.7037037 L24.197193,26.7037037 C24.4430994,26.7037037 24.6398246,26.9111111 24.6398246,27.1703704 C24.6398246,27.4296296 24.4430994,27.637037 24.197193,27.637037 Z M19.7708772,27.637037 L17.5577193,27.637037 C17.3118129,27.637037 17.1150877,27.4296296 17.1150877,27.1703704 C17.1150877,26.9111111 17.3118129,26.7037037 17.5577193,26.7037037 L19.7708772,26.7037037 C20.0167836,26.7037037 20.2135088,26.9111111 20.2135088,27.1703704 C20.2135088,27.4296296 20.0167836,27.637037 19.7708772,27.637037 Z M15.3445614,27.637037 L13.1314035,27.637037 C12.8854971,27.637037 12.6887719,27.4296296 12.6887719,27.1703704 C12.6887719,26.9111111 12.8854971,26.7037037 13.1314035,26.7037037 L15.3445614,26.7037037 C15.5904678,26.7037037 15.787193,26.9111111 15.787193,27.1703704 C15.787193,27.4296296 15.5904678,27.637037 15.3445614,27.637037 Z M10.9182456,27.637037 L8.70508772,27.637037 C8.45918129,27.637037 8.26245614,27.4296296 8.26245614,27.1703704 C8.26245614,26.9111111 8.45918129,26.7037037 8.70508772,26.7037037 L10.9182456,26.7037037 C11.164152,26.7037037 11.3608772,26.9111111 11.3608772,27.1703704 C11.3608772,27.4296296 11.164152,27.637037 10.9182456,27.637037 Z M6.49192982,27.637037 L4.27877193,27.637037 C4.0328655,27.637037 3.83614035,27.4296296 3.83614035,27.1703704 C3.83614035,26.9111111 4.0328655,26.7037037 4.27877193,26.7037037 L6.49192982,26.7037037 C6.73783626,26.7037037 6.9345614,26.9111111 6.9345614,27.1703704 C6.9345614,27.4296296 6.73783626,27.637037 6.49192982,27.637037 Z" id="Shape"></path>
                        <path d="M2.06561404,27.637037 L0.934444444,27.637037 C0.688538012,27.637037 0.491812865,27.4296296 0.491812865,27.1703704 L0.491812865,25.9259259 C0.491812865,25.6666667 0.688538012,25.4592593 0.934444444,25.4592593 C1.18035088,25.4592593 1.37707602,25.6666667 1.37707602,25.9259259 L1.37707602,26.6518519 L2.06561404,26.6518519 C2.31152047,26.6518519 2.50824561,26.8592593 2.50824561,27.1185185 C2.50824561,27.4296296 2.31152047,27.637037 2.06561404,27.637037 Z" id="Shape"></path>
                        <path d="M0.885263158,23.8518519 C0.639356725,23.8518519 0.442631579,23.6444444 0.442631579,23.3851852 L0.442631579,22.1925926 C0.442631579,21.9333333 0.639356725,21.7259259 0.885263158,21.7259259 C1.13116959,21.7259259 1.32789474,21.9333333 1.32789474,22.1925926 L1.32789474,23.3851852 C1.37707602,23.6444444 1.18035088,23.8518519 0.885263158,23.8518519 Z" id="Shape"></path>
                    </g>
                    <g id="Group" transform="translate(10.000000, 0.000000)">
                        <path d="M0.638596491,26.6884615 C0.392982456,26.6884615 0.196491228,26.4807692 0.196491228,26.2211538 L0.196491228,25.0269231 C0.196491228,24.7673077 0.392982456,24.5596154 0.638596491,24.5596154 C0.884210526,24.5596154 1.08070175,24.7673077 1.08070175,25.0269231 L1.08070175,26.2211538 C1.08070175,26.4807692 0.884210526,26.6884615 0.638596491,26.6884615 Z" id="Shape"></path>
                        <path d="M0.638596491,22.8980769 C0.392982456,22.8980769 0.196491228,22.6903846 0.196491228,22.4307692 L0.196491228,19.8346154 C0.196491228,19.575 0.392982456,19.3673077 0.638596491,19.3673077 C0.884210526,19.3673077 1.08070175,19.575 1.08070175,19.8346154 L1.08070175,22.4307692 C1.08070175,22.6903846 0.884210526,22.8980769 0.638596491,22.8980769 Z M0.638596491,17.7576923 C0.392982456,17.7576923 0.196491228,17.55 0.196491228,17.2903846 L0.196491228,14.6942308 C0.196491228,14.4346154 0.392982456,14.2269231 0.638596491,14.2269231 C0.884210526,14.2269231 1.08070175,14.4346154 1.08070175,14.6942308 L1.08070175,17.2903846 C1.08070175,17.55 0.884210526,17.7576923 0.638596491,17.7576923 Z M0.638596491,12.6173077 C0.392982456,12.6173077 0.196491228,12.4096154 0.196491228,12.15 L0.196491228,9.55384615 C0.196491228,9.29423077 0.392982456,9.08653846 0.638596491,9.08653846 C0.884210526,9.08653846 1.08070175,9.29423077 1.08070175,9.55384615 L1.08070175,12.15 C1.08070175,12.4096154 0.884210526,12.6173077 0.638596491,12.6173077 Z M0.638596491,7.47692308 C0.392982456,7.47692308 0.196491228,7.26923077 0.196491228,7.00961538 L0.196491228,4.41346154 C0.196491228,4.15384615 0.392982456,3.94615385 0.638596491,3.94615385 C0.884210526,3.94615385 1.08070175,4.15384615 1.08070175,4.41346154 L1.08070175,7.00961538 C1.08070175,7.21730769 0.884210526,7.47692308 0.638596491,7.47692308 Z" id="Shape"></path>
                        <path d="M0.638596491,2.28461538 C0.392982456,2.28461538 0.196491228,2.07692308 0.196491228,1.81730769 L0.196491228,0.623076923 C0.196491228,0.363461538 0.392982456,0.155769231 0.638596491,0.155769231 L1.76842105,0.155769231 C2.01403509,0.155769231 2.21052632,0.363461538 2.21052632,0.623076923 C2.21052632,0.882692308 2.01403509,1.09038462 1.76842105,1.09038462 L1.08070175,1.09038462 L1.08070175,1.81730769 C1.08070175,2.07692308 0.884210526,2.28461538 0.638596491,2.28461538 Z" id="Shape"></path>
                        <path d="M23.8736842,1.09038462 L21.6631579,1.09038462 C21.4175439,1.09038462 21.2210526,0.882692308 21.2210526,0.623076923 C21.2210526,0.363461538 21.4175439,0.155769231 21.6631579,0.155769231 L23.8736842,0.155769231 C24.1192982,0.155769231 24.3157895,0.363461538 24.3157895,0.623076923 C24.3649123,0.882692308 24.1192982,1.09038462 23.8736842,1.09038462 Z M19.4526316,1.09038462 L17.2421053,1.09038462 C16.9964912,1.09038462 16.8,0.882692308 16.8,0.623076923 C16.8,0.363461538 16.9964912,0.155769231 17.2421053,0.155769231 L19.4526316,0.155769231 C19.6982456,0.155769231 19.8947368,0.363461538 19.8947368,0.623076923 C19.9438596,0.882692308 19.6982456,1.09038462 19.4526316,1.09038462 Z M15.0315789,1.09038462 L12.8210526,1.09038462 C12.5754386,1.09038462 12.3789474,0.882692308 12.3789474,0.623076923 C12.3789474,0.363461538 12.5754386,0.155769231 12.8210526,0.155769231 L15.0315789,0.155769231 C15.277193,0.155769231 15.4736842,0.363461538 15.4736842,0.623076923 C15.522807,0.882692308 15.277193,1.09038462 15.0315789,1.09038462 Z M10.6105263,1.09038462 L8.4,1.09038462 C8.15438596,1.09038462 7.95789474,0.882692308 7.95789474,0.623076923 C7.95789474,0.363461538 8.15438596,0.155769231 8.4,0.155769231 L10.6105263,0.155769231 C10.8561404,0.155769231 11.0526316,0.363461538 11.0526316,0.623076923 C11.1017544,0.882692308 10.8561404,1.09038462 10.6105263,1.09038462 Z M6.18947368,1.09038462 L3.97894737,1.09038462 C3.73333333,1.09038462 3.53684211,0.882692308 3.53684211,0.623076923 C3.53684211,0.363461538 3.73333333,0.155769231 3.97894737,0.155769231 L6.18947368,0.155769231 C6.43508772,0.155769231 6.63157895,0.363461538 6.63157895,0.623076923 C6.63157895,0.882692308 6.43508772,1.09038462 6.18947368,1.09038462 Z" id="Shape"></path>
                        <path d="M27.2631579,2.28461538 C27.0175439,2.28461538 26.8210526,2.07692308 26.8210526,1.81730769 L26.8210526,1.09038462 L26.1333333,1.09038462 C25.8877193,1.09038462 25.6912281,0.882692308 25.6912281,0.623076923 C25.6912281,0.363461538 25.8877193,0.155769231 26.1333333,0.155769231 L27.2631579,0.155769231 C27.5087719,0.155769231 27.7052632,0.363461538 27.7052632,0.623076923 L27.7052632,1.81730769 C27.7052632,2.07692308 27.5087719,2.28461538 27.2631579,2.28461538 Z" id="Shape"></path>
                        <path d="M27.2631579,11.2153846 C27.0175439,11.2153846 26.8210526,11.0076923 26.8210526,10.7480769 L26.8210526,8.51538462 C26.8210526,8.25576923 27.0175439,8.04807692 27.2631579,8.04807692 C27.5087719,8.04807692 27.7052632,8.25576923 27.7052632,8.51538462 L27.7052632,10.7480769 C27.7052632,11.0076923 27.5087719,11.2153846 27.2631579,11.2153846 Z M27.2631579,6.75 C27.0175439,6.75 26.8210526,6.54230769 26.8210526,6.28269231 L26.8210526,4.05 C26.8210526,3.79038462 27.0175439,3.58269231 27.2631579,3.58269231 C27.5087719,3.58269231 27.7052632,3.79038462 27.7052632,4.05 L27.7052632,6.28269231 C27.7052632,6.54230769 27.5087719,6.75 27.2631579,6.75 Z" id="Shape"></path>
                        <path d="M27.2631579,14.6423077 C27.0175439,14.6423077 26.8210526,14.4346154 26.8210526,14.175 L26.8210526,12.9807692 C26.8210526,12.7211538 27.0175439,12.5134615 27.2631579,12.5134615 C27.5087719,12.5134615 27.7052632,12.7211538 27.7052632,12.9807692 L27.7052632,14.175 C27.7052632,14.4346154 27.5087719,14.6423077 27.2631579,14.6423077 Z" id="Shape"></path>
                    </g>
                    <path d="M79.512894,31 L63.4383954,31 C63.1948424,31 63,30.7852349 63,30.5167785 L63,7.48322148 C63,7.2147651 63.1948424,7 63.4383954,7 L75.226361,7 C75.3237822,7 75.469914,7.05369128 75.5673352,7.16107383 L79.8538682,11.885906 C79.9512894,11.9932886 80,12.1006711 80,12.261745 L80,30.5704698 C79.9512894,30.7852349 79.756447,31 79.512894,31 Z M63.8767908,29.9798658 L79.025788,29.9798658 L79.025788,12.4228188 L75.0315186,8.02013423 L63.8767908,8.02013423 L63.8767908,29.9798658 Z" id="Shape"></path>
                    <path d="M79.5498007,13 L75.4221465,13 C75.1876206,13 75,12.7748552 75,12.4934243 L75,7.54023918 C75,7.3150944 75.0938103,7.14623582 75.281431,7.03366343 C75.4690516,6.97737724 75.6566723,6.97737724 75.7504826,7.14623582 L79.8781368,12.0994209 C80.0188523,12.2682795 80.0188523,12.4934243 79.9719471,12.6622828 C79.8781368,12.8874276 79.6905162,13 79.5498007,13 Z M75.8442929,11.9305623 L78.470982,11.9305623 L75.8442929,8.77853545 L75.8442929,11.9305623 Z" id="Shape"></path>
                    <path d="M9.5,46 C4.27020202,46 0,41.5050505 0,36 C0,30.4949495 4.27020202,26 9.5,26 C14.729798,26 19,30.4949495 19,36 C18.9520202,41.5050505 14.729798,46 9.5,46 Z M9.5,26.959596 C4.75,26.959596 0.911616162,31 0.911616162,36 C0.911616162,41 4.75,45.040404 9.5,45.040404 C14.25,45.040404 18.0883838,41 18.0883838,36 C18.0883838,31 14.2020202,26.959596 9.5,26.959596 Z" id="Shape"></path>
                    <path d="M59.2666667,54 L23.7333333,54 C22.1927273,54 21,52.654105 21,51.039031 L21,16.960969 C21,15.2920592 22.2424242,14 23.7333333,14 L59.2666667,14 C60.8072727,14 62,15.345895 62,16.960969 L62,51.039031 C62,52.654105 60.8072727,54 59.2666667,54 Z M23.7333333,14.9690444 C22.7393939,14.9690444 21.8945455,15.8304172 21.8945455,16.960969 L21.8945455,51.039031 C21.8945455,52.115747 22.689697,52.9771198 23.7333333,52.9771198 L59.2666667,52.9771198 C60.2606061,52.9771198 61.1054545,52.115747 61.1054545,51.039031 L61.1054545,16.960969 C61.1054545,15.884253 60.310303,14.9690444 59.2666667,14.9690444 L23.7333333,14.9690444 Z" id="Shape"></path>
                    <path d="M61.5527273,21 L21.4472727,21 C21.1987879,21 21,20.8014184 21,20.5531915 L21,16.7304965 C21,15.1914894 22.2424242,14 23.7333333,14 L59.2666667,14 C60.8072727,14 62,15.2411348 62,16.7304965 L62,20.5531915 C62,20.8014184 61.8012121,21 61.5527273,21 Z M21.8945455,20.0567376 L61.1054545,20.0567376 L61.1054545,16.7304965 C61.1054545,15.7375887 60.310303,14.893617 59.2666667,14.893617 L23.7333333,14.893617 C22.7393939,14.893617 21.8945455,15.6879433 21.8945455,16.7304965 L21.8945455,20.0567376 Z" id="Shape"></path>
                    <g id="Group" transform="translate(23.000000, 23.000000)">
                        <path d="M19.0731707,16 L0.780487805,16 C0.536585366,16 0.341463415,15.7793103 0.341463415,15.5034483 L0.341463415,0.606896552 C0.341463415,0.331034483 0.536585366,0.110344828 0.780487805,0.110344828 L19.0731707,0.110344828 C19.3170732,0.110344828 19.5121951,0.331034483 19.5121951,0.606896552 L19.5121951,15.4482759 C19.5121951,15.7793103 19.3170732,16 19.0731707,16 Z M1.2195122,14.9517241 L18.5853659,14.9517241 L18.5853659,1.15862069 L1.2195122,1.15862069 L1.2195122,14.9517241 Z" id="Shape"></path>
                        <path d="M0.780487805,16 C0.634146341,16 0.487804878,15.9448276 0.390243902,15.7793103 C0.243902439,15.5586207 0.292682927,15.2275862 0.487804878,15.062069 L18.7804878,0.220689655 C18.9756098,0.0551724138 19.2682927,0.110344828 19.4146341,0.331034483 C19.5609756,0.551724138 19.5121951,0.882758621 19.3170732,1.04827586 L1.07317073,15.8896552 C0.975609756,16 0.87804878,16 0.780487805,16 Z" id="Shape"></path>
                        <path d="M19.0731707,16 C18.9756098,16 18.8780488,15.9448276 18.8292683,15.8896552 L0.536585366,1.04827586 C0.341463415,0.882758621 0.292682927,0.551724138 0.43902439,0.331034483 C0.585365854,0.110344828 0.87804878,0.0551724138 1.07317073,0.220689655 L19.3658537,15.062069 C19.5609756,15.2275862 19.6097561,15.5586207 19.4634146,15.7793103 C19.3170732,15.9448276 19.2195122,16 19.0731707,16 Z" id="Shape"></path>
                    </g>
                    <g id="Group" transform="translate(35.000000, 40.000000)">
                        <path d="M10.3190476,10.7380952 L0.995238095,10.7380952 C0.733333333,10.7380952 0.523809524,10.5285714 0.523809524,10.2666667 L0.523809524,0.942857143 C0.523809524,0.680952381 0.733333333,0.471428571 0.995238095,0.471428571 L10.3190476,0.471428571 C10.5809524,0.471428571 10.7904762,0.680952381 10.7904762,0.942857143 L10.7904762,10.2666667 C10.8428571,10.5285714 10.6333333,10.7380952 10.3190476,10.7380952 Z M1.51904762,9.74285714 L9.84761905,9.74285714 L9.84761905,1.41428571 L1.51904762,1.41428571 L1.51904762,9.74285714 Z" id="Shape"></path>
                        <path d="M0.995238095,10.7380952 C0.89047619,10.7380952 0.733333333,10.6857143 0.628571429,10.5809524 C0.419047619,10.3714286 0.419047619,10.0571429 0.628571429,9.9 L9.95238095,0.576190476 C10.1619048,0.366666667 10.4761905,0.366666667 10.6333333,0.576190476 C10.8428571,0.785714286 10.8428571,1.1 10.6333333,1.25714286 L1.30952381,10.5809524 C1.25714286,10.6857143 1.15238095,10.7380952 0.995238095,10.7380952 Z" id="Shape"></path>
                        <path d="M10.3190476,10.7380952 C10.2142857,10.7380952 10.0571429,10.6857143 9.95238095,10.5809524 L0.680952381,1.25714286 C0.471428571,1.04761905 0.471428571,0.733333333 0.680952381,0.576190476 C0.89047619,0.366666667 1.2047619,0.366666667 1.36190476,0.576190476 L10.6857143,9.9 C10.8952381,10.1095238 10.8952381,10.4238095 10.6857143,10.5809524 C10.5809524,10.6857143 10.4761905,10.7380952 10.3190476,10.7380952 Z" id="Shape"></path>
                    </g>
                    <g id="Group" transform="translate(23.000000, 40.000000)">
                        <g id="Shape">
                            <path d="M9.28927204,10.7380952 L0.766125529,10.7380952 C0.526711301,10.7380952 0.335179919,10.5285714 0.335179919,10.2666667 L0.335179919,0.942857143 C0.335179919,0.680952381 0.526711301,0.471428571 0.766125529,0.471428571 L9.28927204,0.471428571 C9.52868627,0.471428571 9.72021765,0.680952381 9.72021765,0.942857143 L9.72021765,10.2666667 C9.72021765,10.5285714 9.52868627,10.7380952 9.28927204,10.7380952 Z M1.19707114,9.74285714 L8.81044358,9.74285714 L8.81044358,1.41428571 L1.19707114,1.41428571 L1.19707114,9.74285714 Z"></path>
                            <path d="M0.766125529,10.7380952 C0.670359838,10.7380952 0.526711301,10.6857143 0.43094561,10.5809524 C0.239414228,10.3714286 0.239414228,10.0571429 0.43094561,9.9 L8.95409212,0.576190476 C9.1456235,0.366666667 9.43292058,0.366666667 9.57656911,0.576190476 C9.76810049,0.785714286 9.76810049,1.1 9.57656911,1.25714286 L1.0534226,10.5809524 C1.00553976,10.6857143 0.86189122,10.7380952 0.766125529,10.7380952 Z"></path>
                            <path d="M9.28927204,10.7380952 C9.19350635,10.7380952 9.04985781,10.6857143 8.95409212,10.5809524 L0.43094561,1.25714286 C0.239414228,1.04761905 0.239414228,0.733333333 0.43094561,0.576190476 C0.622476992,0.366666667 0.909774066,0.366666667 1.0534226,0.576190476 L9.57656911,9.9 C9.76810049,10.1095238 9.76810049,10.4238095 9.57656911,10.5809524 C9.52868627,10.6857143 9.38503773,10.7380952 9.28927204,10.7380952 Z"></path>
                        </g>
                        <g transform="translate(24.420251, 0.000000)" id="Shape">
                            <path d="M9.1456235,10.7380952 L0.622476992,10.7380952 C0.383062765,10.7380952 0.191531382,10.5285714 0.191531382,10.2666667 L0.191531382,0.942857143 C0.191531382,0.680952381 0.383062765,0.471428571 0.622476992,0.471428571 L9.1456235,0.471428571 C9.38503773,0.471428571 9.57656911,0.680952381 9.57656911,0.942857143 L9.57656911,10.2666667 C9.57656911,10.5285714 9.38503773,10.7380952 9.1456235,10.7380952 Z M1.0534226,9.74285714 L8.66679505,9.74285714 L8.66679505,1.41428571 L1.0534226,1.41428571 L1.0534226,9.74285714 Z"></path>
                            <path d="M0.622476992,10.7380952 C0.526711301,10.7380952 0.383062765,10.6857143 0.287297073,10.5809524 C0.0957656911,10.3714286 0.0957656911,10.0571429 0.287297073,9.9 L8.81044358,0.576190476 C9.00197497,0.366666667 9.28927204,0.366666667 9.43292058,0.576190476 C9.62445196,0.785714286 9.62445196,1.1 9.43292058,1.25714286 L0.909774066,10.5809524 C0.86189122,10.6857143 0.718242683,10.7380952 0.622476992,10.7380952 Z"></path>
                            <path d="M9.1456235,10.7380952 C9.04985781,10.7380952 8.90620927,10.6857143 8.81044358,10.5809524 L0.287297073,1.25714286 C0.0957656911,1.04761905 0.0957656911,0.733333333 0.287297073,0.576190476 C0.478828456,0.366666667 0.766125529,0.366666667 0.909774066,0.576190476 L9.43292058,9.9 C9.62445196,10.1095238 9.62445196,10.4238095 9.43292058,10.5809524 C9.38503773,10.6857143 9.24138919,10.7380952 9.1456235,10.7380952 Z"></path>
                        </g>
                    </g>
                    <path d="M6.79908028,42 C6.69876392,42 6.59844756,41.9435484 6.4981312,41.8870968 C6.34765667,41.7741935 6.24734031,41.4919355 6.34765667,41.266129 L7.65176933,36.6935484 L4.19085496,33.8709677 C4.04038042,33.7580645 3.94006406,33.4758065 4.04038042,33.25 C4.0905386,33.0241935 4.29117131,32.9112903 4.49180403,32.9112903 L8.75524927,32.9112903 L10.0593619,28.3387097 C10.1095201,28.1129032 10.3101528,28 10.5107856,28 C10.7114183,28 10.912051,28.1693548 10.9622092,28.3387097 L12.2663218,32.9112903 L16.5297671,32.9112903 C16.7303998,32.9112903 16.9310325,33.0806452 16.9811907,33.25 C17.0313489,33.4758065 16.9811907,33.7016129 16.8307161,33.8709677 L13.3698018,36.6935484 L14.6739144,41.1532258 C14.7240726,41.2096774 14.7240726,41.3225806 14.7240726,41.4354839 C14.7240726,41.7177419 14.5234399,41.9435484 14.272649,41.9435484 C14.272649,41.9435484 14.272649,41.9435484 14.272649,41.9435484 C14.1723326,41.9435484 14.0720163,41.8870968 13.9716999,41.8306452 L10.5107856,39.0080645 L7.04987118,41.8306452 C6.999713,42 6.89939664,42 6.79908028,42 Z M10.5609437,37.8790323 C10.6612601,37.8790323 10.7615764,37.9354839 10.8618928,37.9919355 L13.41996,40.0806452 L12.4167964,36.6935484 C12.3666382,36.4677419 12.4167964,36.2419355 12.5672709,36.0725806 L15.125338,33.983871 L11.9653728,33.983871 C11.76474,33.983871 11.5641073,33.8145161 11.5139491,33.6451613 L10.5107856,30.2580645 L9.55778014,33.6451613 C9.50762196,33.8709677 9.30698925,33.983871 9.10635653,33.983871 L5.94639123,33.983871 L8.50445838,36.0725806 C8.65493292,36.1854839 8.75524927,36.4677419 8.65493292,36.6935484 L7.65176933,40.0806452 L10.2098365,37.9919355 C10.360311,37.9354839 10.4606274,37.8790323 10.5609437,37.8790323 Z" id="Shape"></path>
                    <g id="Group" transform="translate(23.000000, 16.000000)">
                        <path d="M1.50810811,4.64285714 C0.681081081,4.64285714 0,3.64285714 0,2.42857143 C0,1.21428571 0.681081081,0.214285714 1.50810811,0.214285714 C2.33513514,0.214285714 3.01621622,1.21428571 3.01621622,2.42857143 C3.06486486,3.64285714 2.33513514,4.64285714 1.50810811,4.64285714 Z M1.50810811,1.5 C1.16756757,1.5 0.875675676,1.92857143 0.875675676,2.42857143 C0.875675676,2.92857143 1.16756757,3.35714286 1.50810811,3.35714286 C1.84864865,3.35714286 2.14054054,2.92857143 2.14054054,2.42857143 C2.14054054,1.92857143 1.84864865,1.5 1.50810811,1.5 Z" id="Shape"></path>
                        <path d="M5.3027027,4.64285714 C4.47567568,4.64285714 3.79459459,3.64285714 3.79459459,2.42857143 C3.79459459,1.21428571 4.47567568,0.214285714 5.3027027,0.214285714 C6.12972973,0.214285714 6.81081081,1.21428571 6.81081081,2.42857143 C6.81081081,3.64285714 6.12972973,4.64285714 5.3027027,4.64285714 Z M5.3027027,1.5 C4.96216216,1.5 4.67027027,1.92857143 4.67027027,2.42857143 C4.67027027,2.92857143 4.96216216,3.35714286 5.3027027,3.35714286 C5.64324324,3.35714286 5.93513514,2.92857143 5.93513514,2.42857143 C5.93513514,1.92857143 5.64324324,1.5 5.3027027,1.5 Z" id="Shape"></path>
                        <path d="M9.0972973,4.64285714 C8.27027027,4.64285714 7.58918919,3.64285714 7.58918919,2.42857143 C7.58918919,1.21428571 8.27027027,0.214285714 9.0972973,0.214285714 C9.92432432,0.214285714 10.6054054,1.21428571 10.6054054,2.42857143 C10.6054054,3.64285714 9.92432432,4.64285714 9.0972973,4.64285714 Z M9.0972973,1.5 C8.75675676,1.5 8.46486486,1.92857143 8.46486486,2.42857143 C8.46486486,2.92857143 8.75675676,3.35714286 9.0972973,3.35714286 C9.43783784,3.35714286 9.72972973,2.92857143 9.72972973,2.42857143 C9.68108108,1.92857143 9.43783784,1.5 9.0972973,1.5 Z" id="Shape"></path>
                        <path d="M34.3459459,4.64285714 L13.6702703,4.64285714 C12.8432432,4.64285714 12.1621622,3.64285714 12.1621622,2.42857143 C12.1621622,1.21428571 12.8432432,0.214285714 13.6702703,0.214285714 L34.3459459,0.214285714 C35.172973,0.214285714 35.8540541,1.21428571 35.8540541,2.42857143 C35.8540541,3.64285714 35.172973,4.64285714 34.3459459,4.64285714 Z M13.6702703,1.5 C13.3297297,1.5 13.0378378,1.92857143 13.0378378,2.42857143 C13.0378378,2.92857143 13.3297297,3.35714286 13.6702703,3.35714286 L34.3459459,3.35714286 C34.6864865,3.35714286 34.9783784,2.92857143 34.9783784,2.42857143 C34.9783784,1.92857143 34.6864865,1.5 34.3459459,1.5 L13.6702703,1.5 Z" id="Shape"></path>
                    </g>
                    <g id="Group" transform="translate(65.000000, 9.000000)">
                        <path d="M6.3,1.38648649 L0.6,1.38648649 C0.35,1.38648649 0.15,1.18108108 0.15,0.924324324 C0.15,0.667567568 0.35,0.462162162 0.6,0.462162162 L6.3,0.462162162 C6.55,0.462162162 6.75,0.667567568 6.75,0.924324324 C6.75,1.18108108 6.55,1.38648649 6.3,1.38648649 Z" id="Shape"></path>
                        <path d="M6.3,4.26216216 L0.6,4.26216216 C0.35,4.26216216 0.15,4.05675676 0.15,3.8 C0.15,3.54324324 0.35,3.33783784 0.6,3.33783784 L6.3,3.33783784 C6.55,3.33783784 6.75,3.54324324 6.75,3.8 C6.75,4.05675676 6.55,4.26216216 6.3,4.26216216 Z" id="Shape"></path>
                        <path d="M11.45,7.18918919 L0.55,7.18918919 C0.3,7.18918919 0.1,6.98378378 0.1,6.72702703 C0.1,6.47027027 0.3,6.26486486 0.55,6.26486486 L11.45,6.26486486 C11.7,6.26486486 11.9,6.47027027 11.9,6.72702703 C11.95,6.93243243 11.75,7.18918919 11.45,7.18918919 Z" id="Shape"></path>
                        <path d="M11.45,10.0648649 L0.55,10.0648649 C0.3,10.0648649 0.1,9.85945946 0.1,9.6027027 C0.1,9.34594595 0.3,9.14054054 0.55,9.14054054 L11.45,9.14054054 C11.7,9.14054054 11.9,9.34594595 11.9,9.6027027 C11.95,9.80810811 11.75,10.0648649 11.45,10.0648649 Z" id="Shape"></path>
                        <path d="M11.45,12.9405405 L0.55,12.9405405 C0.3,12.9405405 0.1,12.7351351 0.1,12.4783784 C0.1,12.2216216 0.3,12.0162162 0.55,12.0162162 L11.45,12.0162162 C11.7,12.0162162 11.9,12.2216216 11.9,12.4783784 C11.9,12.7351351 11.75,12.9405405 11.45,12.9405405 Z" id="Shape"></path>
                        <path d="M11.45,15.8162162 L0.55,15.8162162 C0.3,15.8162162 0.1,15.6108108 0.1,15.3540541 C0.1,15.0972973 0.3,14.8918919 0.55,14.8918919 L11.45,14.8918919 C11.7,14.8918919 11.9,15.0972973 11.9,15.3540541 C11.95,15.6108108 11.75,15.8162162 11.45,15.8162162 Z" id="Shape"></path>
                        <path d="M11.45,18.6918919 L0.55,18.6918919 C0.3,18.6918919 0.1,18.4864865 0.1,18.2297297 C0.1,17.972973 0.3,17.7675676 0.55,17.7675676 L11.45,17.7675676 C11.7,17.7675676 11.9,17.972973 11.9,18.2297297 C11.95,18.4864865 11.75,18.6918919 11.45,18.6918919 Z" id="Shape"></path>
                    </g>
                    <path d="M57.5534351,26 L45.4465649,26 C45.1984733,26 45,25.7777778 45,25.5 C45,25.2222222 45.1984733,25 45.4465649,25 L57.5534351,25 C57.8015267,25 58,25.2222222 58,25.5 C58,25.7777778 57.8015267,26 57.5534351,26 Z" id="Shape"></path>
                    <path d="M57.5534351,29 L45.4465649,29 C45.1984733,29 45,28.7777778 45,28.5 C45,28.2222222 45.1984733,28 45.4465649,28 L57.5534351,28 C57.8015267,28 58,28.2222222 58,28.5 C58,28.7222222 57.8015267,29 57.5534351,29 Z" id="Shape"></path>
                    <path d="M57.5534351,32 L45.4465649,32 C45.1984733,32 45,31.7777778 45,31.5 C45,31.2222222 45.1984733,31 45.4465649,31 L57.5534351,31 C57.8015267,31 58,31.2222222 58,31.5 C58,31.7777778 57.8015267,32 57.5534351,32 Z" id="Shape"></path>
                    <path d="M57.5534351,36 L45.4465649,36 C45.1984733,36 45,35.7777778 45,35.5 C45,35.2222222 45.1984733,35 45.4465649,35 L57.5534351,35 C57.8015267,35 58,35.2222222 58,35.5 C58,35.7222222 57.8015267,36 57.5534351,36 Z" id="Shape"></path>
                </g>
                <path d="M533.5,154 C565.256373,154 591,129.375661 591,99 C591,68.6243388 565.256373,44 533.5,44 C501.743627,44 476,68.6243388 476,99 C476,129.375661 501.743627,154 533.5,154 Z" id="Oval-2" stroke="#979797" stroke-dasharray="5,5,5,5"></path>
                <g id="Group-11" transform="translate(501.000000, 61.000000)" fill="#000000" fill-rule="nonzero">
                    <path d="M66.6407471,39.1714889 C64.5018196,35.2420889 59.4866039,32.5238222 59.4866039,27.7245111 C59.4866039,25.2241333 61.1999073,24.4224667 61.1999073,21.5833333 C61.1999073,18.7474889 60.9397113,15.7176 58.6536442,12.4829778 C55.0724161,7.41151111 47.5026243,0 30.7062656,0 C10.5107329,0 -6.3737433,14.9397778 2.35653927,38.1881111 C5.33673951,46.6413778 13.0694655,50.1267778 13.0694655,55.1127333 C13.0694655,57.2809333 12.4867262,61.1363333 10.9188998,64.8026222 C8.88139052,69.5624667 8.07918878,71.0852222 8.07918878,71.0852222 C7.23292829,72.6877333 8.03679262,74 9.86647763,74 L42.4948904,74 L42.8955756,74 C44.1691228,72.4279111 43.092593,67.2988889 43.092593,67.2988889 C42.6270666,65.0854667 44.1101007,63.4591111 46.3836984,63.6868667 C46.3836984,63.6868667 47.8600821,63.8365111 52.1171548,64.3306667 C54.8413155,64.6472222 57.5072854,64.6694222 59.2355522,63.7255111 C63.6655346,61.309 59.3120315,56.9948 59.3120315,55.4934222 C59.3120315,53.9887556 62.4485156,54.0545333 62.4485156,52.3928222 C62.4485156,50.7319333 59.5023986,51.4850889 59.4633276,50.4285333 C59.4259192,49.3703333 63.5175637,50.1958444 63.5175637,48.5333111 C63.5175637,46.8716 61.8358496,46.5196889 61.8358496,44.6664 C61.8358496,43.2324444 65.862653,42.9545333 66.7853928,41.1300222 C67.0613834,40.5906444 67.1278872,40.0660667 66.6407471,39.1714889 Z M34.2068579,11.2266222 L35.5834859,7.03164444 C35.7780095,6.43882222 36.4214335,6.11404444 37.0207987,6.30726667 C37.6209952,6.50048889 37.947695,7.13606667 37.7540028,7.72888889 L36.3757121,11.9238667 C36.1820199,12.5166889 35.5377646,12.8406444 34.9383994,12.6482444 C34.3382028,12.4558444 34.0098405,11.8194444 34.2068579,11.2266222 Z M23.662685,6.30726667 C24.2620502,6.11486667 24.9046429,6.43882222 25.0999977,7.03164444 L26.4774571,11.2266222 C26.6719806,11.8186222 26.3444495,12.4558444 25.7450843,12.6482444 C25.1457191,12.8406444 24.5039577,12.5166889 24.3086028,11.9238667 L22.9303122,7.72888889 C22.7357887,7.13606667 23.0624884,6.49966667 23.662685,6.30726667 Z M8.72760055,26.6383556 C8.72760055,26.0151111 9.23801699,25.5110889 9.86814022,25.5110889 L14.3255555,25.5110889 C14.95651,25.5110889 15.4669265,26.0151111 15.4669265,26.6383556 C15.4669265,27.2616 14.95651,27.7664444 14.3255555,27.7664444 L9.86814022,27.7664444 C9.23801699,27.7664444 8.72760055,27.2616 8.72760055,26.6383556 Z M18.0547545,36.8618667 L14.4485875,39.4535111 C13.9390023,39.8194 13.2257494,39.7092222 12.8558221,39.2043778 C12.4850636,38.7003556 12.59812,37.9948889 13.1085365,37.629 L16.7147035,35.0365333 C17.2251199,34.6706444 17.9383729,34.7808222 18.3083001,35.2856667 C18.6782273,35.7913333 18.5651709,36.4951556 18.0547545,36.8618667 Z M18.3083001,17.9926889 C17.9383729,18.4967111 17.2259512,18.6077111 16.7163661,18.241 L13.1085365,15.6493556 C12.59812,15.2834667 12.4850636,14.578 12.8558221,14.0731556 C13.2257494,13.5691333 13.9390023,13.4573111 14.4485875,13.8240222 L18.0564171,16.4164889 C18.5651709,16.7832 18.6790586,17.4886667 18.3083001,17.9926889 Z M33.2034822,46.9562889 L33.1511105,46.9562889 C33.1527731,46.9710889 33.1610861,46.9834222 33.1610861,46.9998667 C33.1610861,47.5606222 32.7013788,48.0144889 32.1344341,48.0144889 L28.5507121,48.0144889 C27.9837675,48.0144889 27.5257228,47.5589778 27.5257228,46.9998667 C27.5257228,46.9834222 27.5340357,46.9710889 27.5340357,46.9562889 L27.481664,46.9562889 C26.9147194,46.9562889 26.4558434,46.5016 26.4558434,45.9400222 C26.4558434,45.3809111 26.9155507,44.9254 27.481664,44.9254 L33.2051448,44.9254 C33.7720895,44.9254 34.2309655,45.3817333 34.2309655,45.9400222 C34.2293029,46.5024222 33.7695956,46.9562889 33.2034822,46.9562889 Z M34.1802564,44.2182889 L26.502396,44.2182889 C25.9354513,44.2182889 25.475744,43.7636 25.475744,43.2036667 C25.475744,42.6412667 25.9362826,42.1874 26.502396,42.1874 L34.1802564,42.1874 C34.7463697,42.1874 35.2052458,42.6420889 35.2052458,43.2036667 C35.2069083,43.7644222 34.7463697,44.2182889 34.1802564,44.2182889 Z M36.7747348,35.0044667 C36.042362,35.9459111 35.911017,36.8421333 35.7838286,37.7095778 C35.4895494,39.7166222 34.9741451,40.9359778 30.3404949,40.9359778 C25.7076759,40.9359778 25.1939343,39.7174444 24.8988238,37.7095778 C24.7716353,36.8421333 24.6394591,35.9450889 23.9070863,35.0044667 C21.7423886,32.2245333 19.6292312,29.2645333 19.6292312,26.3234444 C19.6292312,20.4568889 24.4341287,15.6838889 30.3404949,15.6838889 C36.2468611,15.6838889 41.0542524,20.4568889 41.0542524,26.3234444 C41.0542524,29.2612444 38.9402638,32.2228889 36.7747348,35.0044667 Z M42.6270666,16.4164889 L46.2348962,13.8240222 C46.7444813,13.4581333 47.4585656,13.5683111 47.8276615,14.0731556 C48.1975887,14.578 48.0861949,15.2826444 47.5757785,15.6493556 L43.9671176,18.2418222 C43.4583638,18.6085333 42.7442795,18.4967111 42.3743523,17.9926889 C42.0035938,17.4878444 42.1166502,16.7832 42.6270666,16.4164889 Z M47.8251676,39.2052 C47.456903,39.7092222 46.7436501,39.8202222 46.2340649,39.4543333 L42.6278979,36.8626889 C42.1166502,36.4968 42.0044251,35.7913333 42.373521,35.2873111 C42.7434482,34.7832889 43.4575325,34.6722889 43.9671176,35.0381778 L47.5732846,37.6306444 C48.0845323,37.9957111 48.1975887,38.7003556 47.8251676,39.2052 Z M50.8145121,27.7664444 L46.3554343,27.7664444 C45.7253111,27.7664444 45.2148946,27.2616 45.2148946,26.6383556 C45.2148946,26.0151111 45.7253111,25.5110889 46.3554343,25.5110889 L50.8145121,25.5110889 C51.4446354,25.5110889 51.9550518,26.0151111 51.9550518,26.6383556 C51.9550518,27.2616 51.4446354,27.7664444 50.8145121,27.7664444 Z" id="Shape"></path>
                </g>
                <g id="Group-4" transform="translate(0.000000, 44.000000)">
                    <ellipse id="Oval-2" stroke="#979797" cx="57.5" cy="55" rx="57.5" ry="55"></ellipse>
                    <g id="Group-2" transform="translate(16.000000, 25.000000)" fill="#000000" fill-rule="nonzero">
                        <g id="Group">
                            <path d="M27.7662917,34.5111667 L38.7850833,29.5510833 L39.363875,30.74925 C40.0338958,32.1364167 39.4122083,33.7849167 37.9755,34.43125 L32.1585833,37.0498333 C30.7224792,37.69675 29.0145,37.0965 28.3450833,35.7093333 L27.7662917,34.5111667 Z" id="Shape"></path>
                            <path d="M55.545875,51.5520833 L33.7227708,51.5520833 C32.9397708,49.7169167 31.6377917,48.1576667 30.015,46.984 L53.6638958,36.2716667 C54.8045625,35.7548333 55.2963542,34.4423333 54.7610625,33.341 C54.2257708,32.2425833 52.8663958,31.7636667 51.7245208,32.2828333 L27.0515625,43.4595 C22.4435833,45.1441667 17.2562083,42.91525 15.4866042,38.4615 C13.8360208,34.307 15.7590833,29.7004167 19.7580625,27.6978333 C20.840125,28.3301667 22.0955833,28.7145833 23.4525417,28.7145833 C23.9479583,28.7145833 24.4318958,28.6661667 24.8989167,28.5734167 L25.9471458,30.744 L36.9659375,25.7839167 L27.0328333,5.21616667 C26.3628125,3.82958333 24.6554375,3.22933333 23.2193333,3.87625 L21.9850208,4.43216667 L20.2855,0.9135 C20.0251042,0.3745 19.3617292,0.14175 18.8034792,0.392583333 L17.3770417,1.03483333 C16.8187917,1.28625 16.577125,1.92675 16.8375208,2.46575 L18.5364375,5.98383333 L17.4018125,6.49483333 C15.9657083,7.14175 15.3440208,8.79025 16.0140417,10.1768333 L19.0119167,16.3840833 C17.3583125,17.6534167 16.2774583,19.5889167 16.2774583,21.7863333 C16.2774583,22.6555 16.4623333,23.4785833 16.7650208,24.2445 C11.335375,27.4785 8.8576875,34.0835833 11.2236042,40.0405833 C12.3376875,42.8423333 14.4033333,45.0899167 17.0489792,46.5826667 C15.1609583,47.7831667 13.669875,49.5086667 12.7980625,51.5515 L2.454125,51.5515 C1.26572917,51.5515 0.302083333,52.4819167 0.302083333,53.6293333 C0.302083333,54.77675 1.26572917,55.7071667 2.454125,55.7071667 L11.9395417,55.7071667 L34.5800833,55.7071667 L55.5446667,55.7071667 C56.7330625,55.7071667 57.6967083,54.77675 57.6967083,53.6293333 C57.6979167,52.4825 56.7342708,51.5520833 55.545875,51.5520833 Z M23.4525417,19.0155 C25.0348542,19.0155 26.3223333,20.2574167 26.3223333,21.7863333 C26.3223333,23.31525 25.0348542,24.5571667 23.4525417,24.5571667 C21.8702292,24.5571667 20.58275,23.31525 20.58275,21.7863333 C20.58275,20.2574167 21.8708333,19.0155 23.4525417,19.0155 Z" id="Shape"></path>
                        </g>
                    </g>
                    <g id="Group-3" transform="translate(81.380602, 47.380602) rotate(-1.000000) translate(-81.380602, -47.380602) translate(59.380602, 25.380602)" fill="#000000" fill-rule="nonzero">
                        <g id="Group">
                            <path d="M20.50301,5.42346618 C18.4813265,3.40178262 15.7903641,2.28939509 12.933236,2.28939509 C10.0714921,2.28939509 7.38514544,3.40178262 5.36346188,5.42346618 C1.18623899,9.60068907 1.18623899,16.3904072 5.36346188,20.5676301 C7.38514544,22.5893136 10.0714921,23.7017011 12.933236,23.7017011 C15.7903641,23.7017011 18.4813265,22.5893136 20.50301,20.5676301 C22.5246936,18.5459465 23.6416968,15.8549841 23.6416968,12.997856 C23.6416968,10.1361121 22.5246936,7.44514975 20.50301,5.42346618 Z M19.8521941,19.9121984 C18.001292,21.7631005 15.5457312,22.778558 12.933236,22.778558 C10.3207408,22.778558 7.86056418,21.7631005 6.01427782,19.9121984 C2.20169648,16.0996171 2.20169648,9.89147917 6.01427782,6.07889784 C7.86056418,4.22799576 10.3207408,3.21253827 12.933236,3.21253827 C15.5457312,3.21253827 18.001292,4.22799576 19.8521941,6.07889784 C21.6984804,7.9251842 22.7185537,10.3807451 22.7185537,12.997856 C22.7185537,15.6103512 21.6984804,18.065912 19.8521941,19.9121984 Z" id="Shape"></path>
                            <path d="M15.6103512,8.02211423 C14.8949152,7.30667827 13.9440777,6.91434242 12.933236,6.91434242 C11.9223942,6.91434242 10.9715567,7.30667827 10.2561207,8.02211423 C8.77909164,9.49914332 8.77909164,11.8993156 10.2561207,13.3763447 C10.9715567,14.0917806 11.9223942,14.4841165 12.933236,14.4841165 C13.9440777,14.4841165 14.8949152,14.0917806 15.6103512,13.3763447 C17.0873803,11.8993156 17.0873803,9.49914332 15.6103512,8.02211423 Z M14.9595352,12.7255287 C14.4148808,13.2655675 13.6994448,13.5609733 12.933236,13.5609733 C12.1670271,13.5609733 11.4469754,13.2655675 10.9069367,12.7255287 C9.78993342,11.6085255 9.78993342,9.78993342 10.9069367,8.67293018 C11.4469754,8.13289142 12.1670271,7.8374856 12.933236,7.8374856 C13.6994448,7.8374856 14.4148808,8.13289142 14.9595352,8.67293018 C16.0719228,9.78993342 16.0719228,11.6085255 14.9595352,12.7255287 Z" id="Shape"></path>
                            <path d="M10.0299507,14.9364567 C10.0668764,15.1857053 9.89147917,15.4211068 9.6376148,15.4580325 C9.2591261,15.5134211 8.91756312,15.6149669 8.61292587,15.7395912 C7.82825417,16.0719228 7.28359969,16.5842672 6.937421,17.0319917 C6.54508515,17.5212576 6.38815081,17.936672 6.38353509,17.9505191 C6.31429935,18.1351478 6.13428643,18.2505407 5.9496578,18.2505407 C5.8942692,18.2505407 5.84349633,18.2413092 5.78810774,18.2228464 C5.54809051,18.1305321 5.4280819,17.8674362 5.5157805,17.627419 C5.55732194,17.5212576 6.531238,14.9872295 9.50375904,14.5441208 C9.75762341,14.5071951 9.99302492,14.6825923 10.0299507,14.9364567 Z" id="Shape"></path>
                            <path d="M20.0783642,18.2228464 C20.0229756,18.2413092 19.967587,18.2505407 19.9168141,18.2505407 C19.7275698,18.2505407 19.5521726,18.1351478 19.4829368,17.9505191 C19.4690897,17.9135934 19.3121553,17.5120261 18.9382823,17.0366074 C18.5874879,16.5842672 18.0428335,16.067307 17.2489303,15.7395912 C17.2489303,15.7395912 17.2489303,15.7349755 17.2443146,15.7349755 C16.9442931,15.6103512 16.6027301,15.5134211 16.2242414,15.4580325 C15.9749927,15.4211068 15.7995955,15.1857053 15.8365213,14.9364567 C15.873447,14.6825923 16.1088485,14.5071951 16.3627129,14.5441208 C19.3352339,14.9872295 20.30915,17.5212576 20.3506914,17.627419 C20.43839,17.8674362 20.3183814,18.1305321 20.0783642,18.2228464 Z" id="Shape"></path>
                            <path d="M42.2476476,37.4334559 L29.9606119,25.1510359 C29.4436517,24.62946 28.7420629,24.3479014 27.9804698,24.3479014 C27.1404095,24.3479014 26.3003492,24.7033115 25.6818433,25.3218174 L25.6264547,25.377206 L22.0215806,21.7723319 C24.2555871,19.4921682 25.6356861,16.3673286 25.6356861,12.9240045 C25.6356861,5.9496578 19.9629713,0.272327238 12.9886245,0.272327238 C6.01427782,0.272327238 0.336947261,5.9496578 0.336947261,12.9240045 C0.336947261,19.8983512 6.01427782,25.5756818 12.9886245,25.5756818 C16.1919314,25.5756818 19.1182953,24.3802114 21.347686,22.404685 L24.9941016,26.0511005 C24.56484,26.5865236 24.3202071,27.2327238 24.2878971,27.8973869 C24.2463556,28.7143686 24.53253,29.471346 25.0864159,30.0252319 L37.3734516,42.3122677 C37.8904118,42.8292278 38.5920006,43.1154022 39.3535938,43.1154022 C40.1936541,43.1154022 41.0337144,42.7599921 41.6522203,42.1368705 L42.0768661,41.7168403 C43.3000309,40.4890599 43.378498,38.5689221 42.2476476,37.4334559 Z M12.9886245,24.6525386 C6.52200657,24.6525386 1.26009044,19.3906225 1.26009044,12.9240045 C1.26009044,6.45738654 6.52200657,1.19547042 12.9886245,1.19547042 C19.4552425,1.19547042 24.7125429,6.45738654 24.7125429,12.9240045 C24.7125429,19.3906225 19.4552425,24.6525386 12.9886245,24.6525386 Z M41.4214345,41.0614086 L41.0014043,41.4860545 C40.5490642,41.933779 39.9536368,42.192259 39.3535938,42.192259 C38.8412493,42.192259 38.3704463,42.0030147 38.0242676,41.656836 L25.7372319,29.3698003 C25.3725903,29.0051587 25.183346,28.49743 25.2110402,27.9435441 C25.2341188,27.3711953 25.4833675,26.8219251 25.9126291,26.3972792 L25.9541705,26.3557378 C25.9634019,26.3465064 25.9680177,26.3418906 25.9726334,26.3326592 L26.3326592,25.9726334 C26.7803837,25.5249089 27.3804267,25.2710446 27.9804698,25.2710446 C28.4928143,25.2710446 28.9636173,25.4602889 29.309796,25.8018519 L41.5968317,38.0888876 C42.3676562,38.8597122 42.2891891,40.1936541 41.4214345,41.0614086 Z" id="Shape"></path>
                            <path d="M39.0489565,40.4659813 C38.9612579,40.5536799 38.8412493,40.5998371 38.7212407,40.5998371 C38.6058478,40.5998371 38.4858392,40.5536799 38.3981406,40.4659813 L27.1681038,29.2267131 C26.9880909,29.0467002 26.9880909,28.7512943 27.1681038,28.5712814 C27.3481167,28.3912685 27.6389068,28.3912685 27.8189197,28.5712814 L39.0489565,39.8105496 C39.2289694,39.9905626 39.2289694,40.2859684 39.0489565,40.4659813 Z" id="Shape"></path>
                        </g>
                    </g>
                </g>
                <g id="Group-7" transform="translate(155.000000, 44.000000)">
                    <ellipse id="Oval-2" stroke="#979797" cx="57.5" cy="55" rx="57.5" ry="55"></ellipse>
                    <g id="Group-6" transform="translate(25.000000, 19.000000)">
                        <g id="Group-5" transform="translate(15.000000, 0.000000)">
                            <path d="M24.9476658,5.42550335 C19.9718157,1.66300633 13.4694181,1.47063144 8.16419453,5.36667654 C3.70530788,8.64128249 0.784485845,15.8173757 4.95884624,19.4715484 C9.22141763,23.2043297 11.1816037,21.0385357 14.515473,18.0196233 C18.0574365,14.8124825 21.0586169,18.0738718 25.2217219,17.1752297 C29.4997368,16.8661514 29.5011328,12.5749906 29.410217,11.860517 C28.9561616,8.2930727 26.842588,6.8584242 24.9476658,5.42550335 Z" id="Shape"></path>
                            <path d="M36.3536783,21.0626931 L33.3833109,18.4139338 C32.288795,16.9751469 32.749005,15.1922642 32.5081173,13.5198558 C31.9682806,9.77282187 30.0745306,6.10138939 27.0113529,3.77146706 C20.3467324,-1.29776151 11.107258,-1.41487817 5.09702465,4.38335791 C0.119666431,9.18522836 -1.19600525,16.1978069 1.07841556,22.6766306 C2.35741712,26.3210563 3.69823402,27.4765782 6.09707133,30.4845536 C7.01775338,31.6390267 6.31779055,37.4491492 6.13016175,38.6964417 C5.79882098,40.8989341 5.67222174,40.6126974 5.51200822,42.273132 C5.35773177,43.872124 5.82972866,44.3265192 6.14762371,44.5741248 C6.5342316,44.8751321 12.7859639,45.0457378 17.0547157,44.9892771 C18.7055697,44.967427 19.3685132,45.1318273 19.938559,43.2583104 C20.4705378,41.5101257 21.021812,39.7131716 22.0733714,38.1942384 C23.8470704,35.6320056 28.1380861,37.2886819 30.7076141,37.1873847 C33.3303138,37.0839026 36.4841191,34.7448032 33.560026,32.0889644 C35.1550891,31.9936979 35.1264514,29.7447084 34.3332417,29.0695396 C36.8784103,27.3425059 33.6785054,25.6619692 35.0121629,24.2623377 C35.9200977,23.3094975 38.0725467,22.5590769 36.3536783,21.0626931 Z M16.1471301,17.0046882 L16.9016615,13.5673143 L16.9063763,13.5673143 L16.9070748,13.5673143 L16.9117895,13.5673143 L17.6058152,16.7298137 C17.1210711,16.7477308 16.6365016,16.8289258 16.1471301,17.0046882 Z M24.9731052,17.3341881 C22.8858766,17.7898068 21.0905248,17.1887537 19.3727041,16.8837259 L18.6328407,13.516622 L18.6561524,9.70054167 L20.3048237,13.3979321 C20.6364264,14.4521568 21.6627533,13.8504919 21.4499793,13.1917543 L20.3165232,10.3986968 C19.7263962,9.03577352 19.6657158,8.14691051 18.438489,8.14691051 L16.9066382,8.14874592 L15.3747001,8.14691051 C14.1474733,8.14691051 14.086793,9.03577352 13.4969278,10.3986968 L12.363559,13.1917543 C12.1506104,13.8504919 13.1767627,14.4522442 13.5088019,13.3979321 L15.157124,9.70054167 L15.1803484,13.516622 L14.1272174,18.3101894 C10.871085,21.3002476 8.90521707,23.3841376 4.69662181,19.6576428 C0.519458097,15.9604271 3.44224163,8.69980603 7.90412267,5.38662816 C13.212909,1.44469115 19.7196733,1.63933204 24.6987777,5.44623529 C26.5950597,6.89603466 28.7099655,8.34758204 29.1643258,11.9569602 C29.2553899,12.6798497 29.2540803,17.0214691 24.9731052,17.3341881 Z" id="Shape" fill="#000000" fill-rule="nonzero"></path>
                            <path d="M17.2385895,5.04672897 C16.38688,5.04672897 15.9772727,5.70562067 15.9772727,6.51873627 C15.9772727,7.33194122 16.38688,7.99065421 17.2385895,7.99065421 C18.0910483,7.99065421 18.5,7.33167316 18.5,6.51873627 C18.5,5.70562067 18.0910483,5.04672897 17.2385895,5.04672897 Z" id="Shape" fill="#000000" fill-rule="nonzero"></path>
                        </g>
                        <path d="M13.2393158,42.6454438 C13.2393158,42.6467625 13.2393158,42.6467625 13.2393158,42.6480811 L10.6768036,40.3272501 C10.007229,39.6613299 9.10939032,39.3791379 8.23669379,39.4582571 C7.54396197,39.5189152 6.86843266,39.7984699 6.33846305,40.3272501 C5.13958047,41.5219506 5.13958047,43.4577347 6.33846305,44.6504572 L9.23973241,47.2745786 L13.8103068,51.4059215 L16.7413497,54.0550973 C17.139654,54.4144306 17.1687659,55.0289233 16.8101598,55.4238602 C16.4469222,55.820775 15.8329249,55.8491261 15.433959,55.4911115 L5.36850618,46.3930584 C4.16300725,45.4957144 3.37963144,44.0636562 3.37963144,42.4489644 C3.37963144,39.8360515 5.42805332,37.7011507 8.00842972,37.5429122 L6.13600274,22.0572992 C6.13600274,20.3687628 4.76377181,19 3.06800137,19 C1.37223094,19 0,20.3687628 0,22.0572992 L0,49.9975991 C0,51.009666 0.49357969,51.9063507 1.252475,52.463482 L12.4420457,62.470747 C13.4682415,63.4379797 14.1080425,64.8067426 14.1080425,66.323854 L14.1080425,69.7905953 L14.1120124,69.7905953 L14.1120124,69.7991665 C14.1120124,71.0149655 15.0978485,72 16.3165801,72 L24.7914625,72 C26.0141639,72 27,71.0149655 27,69.7991665 L27,69.7899359 L27,68.154805 L27,58.4435778 C26.9847824,56.2209865 26.0168104,54.2238851 24.4851255,52.8353424 L13.2393158,42.6454438 Z" id="Shape" fill="#000000" fill-rule="nonzero"></path>
                        <path d="M62.9325099,19 C61.237318,19 59.8617115,20.3687628 59.8617115,22.0572992 L57.9891928,37.5422529 C60.5736656,37.7004914 62.6195412,39.8360515 62.6195412,42.448305 C62.6195412,44.0629968 61.8374504,45.495055 60.6318924,46.3923991 L50.5632995,55.4911115 C50.1676224,55.8491261 49.5502867,55.820775 49.1910013,55.4238602 C48.8317159,55.028264 48.857521,54.4144306 49.2558447,54.0550973 L52.1910013,51.4059215 L56.7578297,47.2745786 L59.6632113,44.6504572 C60.861491,43.4577347 60.861491,41.5226099 59.6632113,40.3272501 C59.1332157,39.7978105 58.4576533,39.5182559 57.7648875,39.4582571 C56.8928099,39.3797972 55.9929422,39.6619892 55.3239965,40.3272501 L52.762682,42.6480811 C52.762682,42.6467625 52.762682,42.6467625 52.762682,42.6454438 L41.5163211,52.8353424 C39.9838994,54.2232257 39.0172034,56.2209865 39,58.4435778 L39,68.154805 L39,69.7899359 L39,69.7991665 C39,71.0149655 39.9872078,72 41.2059991,72 L49.6812969,72 C50.9040582,72 51.8899427,71.0149655 51.8899427,69.7991665 L51.8899427,69.7899359 L51.8899427,66.3231946 C51.8899427,64.8060832 52.533745,63.4373204 53.5593295,62.4700877 L64.7454786,52.4628227 C65.5063961,51.905032 66,51.0090067 66,49.9969397 L66,22.0572992 C66,20.3687628 64.6250551,19 62.9325099,19 Z" id="Shape" fill="#000000" fill-rule="nonzero"></path>
                    </g>
                </g>
                <g id="Group-10" transform="translate(318.000000, 44.000000)">
                    <ellipse id="Oval-2" stroke="#979797" cx="57.5" cy="55" rx="57.5" ry="55"></ellipse>
                    <ellipse id="Oval-2" stroke="#979797" cx="57.5" cy="55" rx="57.5" ry="55"></ellipse>
                    <g id="Group-9" transform="translate(15.000000, 22.000000)" fill="#000000" fill-rule="nonzero">
                        <g id="Group-8" transform="translate(50.000000, 23.000000)">
                            <path d="M10.1612903,5.625 L5.64516129,5.625 C5.02161399,5.625 4.51612903,6.12867966 4.51612903,6.75 L4.51612903,11.25 C4.51612903,11.8713203 5.02161399,12.375 5.64516129,12.375 L10.1612903,12.375 C10.7848376,12.375 11.2903226,11.8713203 11.2903226,11.25 L11.2903226,6.75 C11.2903226,6.12867966 10.7848376,5.625 10.1612903,5.625 Z M9.03225806,10.125 L6.77419355,10.125 L6.77419355,7.875 L9.03225806,7.875 L9.03225806,10.125 Z" id="Shape"></path>
                            <path d="M10.1612903,14.0625 L5.64516129,14.0625 C5.02161399,14.0625 4.51612903,14.5661797 4.51612903,15.1875 L4.51612903,19.6875 C4.51612903,20.3088203 5.02161399,20.8125 5.64516129,20.8125 L10.1612903,20.8125 C10.7848376,20.8125 11.2903226,20.3088203 11.2903226,19.6875 L11.2903226,15.1875 C11.2903226,14.5661797 10.7848376,14.0625 10.1612903,14.0625 Z M9.03225806,18.5625 L6.77419355,18.5625 L6.77419355,16.3125 L9.03225806,16.3125 L9.03225806,18.5625 Z" id="Shape"></path>
                            <path d="M10.1612903,23.0625 L5.64516129,23.0625 C5.02161399,23.0625 4.51612903,23.5661797 4.51612903,24.1875 L4.51612903,28.6875 C4.51612903,29.3088203 5.02161399,29.8125 5.64516129,29.8125 L10.1612903,29.8125 C10.7848376,29.8125 11.2903226,29.3088203 11.2903226,28.6875 L11.2903226,24.1875 C11.2903226,23.5661797 10.7848376,23.0625 10.1612903,23.0625 Z M9.03225806,27.5625 L6.77419355,27.5625 L6.77419355,25.3125 L9.03225806,25.3125 L9.03225806,27.5625 Z" id="Shape"></path>
                            <path d="M1.09377559,36 L26.2506142,36 C26.8546898,36 27.3443898,35.5115834 27.3443898,34.9090909 L27.3443898,22.5185455 L34.7820638,12.5847273 C34.9615716,12.3453844 35.0347546,12.043064 34.9845151,11.7483971 C34.9342757,11.4537302 34.7650146,11.1925291 34.5162763,11.0258182 L29.7321019,7.82181818 C29.2419086,7.49299114 28.5784981,7.61180231 28.2336293,8.09018182 L27.3443898,9.32072727 L27.3443898,1.09090909 C27.3443898,0.488416637 26.8546898,0 26.2506142,0 L1.09377559,0 C0.489700012,0 0,0.488416637 0,1.09090909 L0,34.9090909 C0,35.5115834 0.489700012,36 1.09377559,36 Z M20.0303124,26.1567273 L20.417509,23.5690909 L22.2769275,24.7243636 L20.0303124,26.1567273 Z M29.3908439,10.2218182 L32.344038,12.1985455 L25.3755937,21.5029091 L24.063063,23.2570909 L21.2378406,21.5116364 L27.1442288,13.3429091 L29.3908439,10.2218182 Z M2.18755118,2.18181818 L25.1568386,2.18181818 L25.1568386,12.3490909 L23.6364905,14.4534545 L18.6630929,21.336 C18.5619862,21.4771714 18.4956606,21.6401215 18.4694946,21.8116364 L17.512441,28.2021818 C17.4563847,28.5002411 17.5326206,28.8079011 17.7214341,29.045601 C17.9102475,29.283301 18.1930975,29.4276993 18.496839,29.4414545 C18.5274647,29.4414545 18.5569967,29.4534545 18.5876224,29.4545455 C18.6800109,29.4532509 18.7718734,29.4404239 18.8610663,29.4163636 C18.8701735,29.4168877 18.8793035,29.4168877 18.8884107,29.4163636 C18.9900284,29.3875361 19.0869225,29.3441766 19.1760737,29.2876364 L24.9183955,25.6363636 C24.9992158,25.5831885 25.072752,25.5197464 25.1371506,25.4476364 L25.1480884,25.4378182 L25.1480884,33.8181818 L2.18755118,33.8181818 L2.18755118,2.18181818 Z" id="Shape"></path>
                            <rect id="Rectangle-path" x="13.5483871" y="7.875" width="8.46774194" height="2.25"></rect>
                            <rect id="Rectangle-path" x="13.5483871" y="16.3125" width="5.64516129" height="2.25"></rect>
                            <rect id="Rectangle-path" x="13.5483871" y="25.3125" width="2.25806452" height="2.25"></rect>
                        </g>
                        <g id="Group">
                            <path d="M25.59375,40.2211429 C22.7860206,40.2211426 20.2548112,38.5314468 19.1806026,35.9400792 C18.1063939,33.3487117 18.7007735,30.3660953 20.6865403,28.3832336 C22.6723071,26.4003719 25.6583237,25.8078301 28.2520008,26.8819521 C30.8456779,27.9560741 32.5361377,30.4852895 32.535,33.2900476 C32.530348,37.1171561 29.4249142,40.2180468 25.59375,40.2211429 Z M25.59375,27.8142857 C22.5636266,27.8158372 20.10834,30.2706216 20.1093753,33.2975387 C20.1104106,36.3244558 22.5673758,38.7775637 25.5974995,38.7770468 C28.6276232,38.7765299 31.0837496,36.322584 31.08375,33.2956667 C31.0791001,30.269213 28.6234116,27.8173799 25.59375,27.8142857 Z" id="Shape"></path>
                            <path d="M25.59375,43.9465714 C19.7024462,43.9450199 14.9277148,39.1732448 14.9287502,33.2881751 C14.9297856,27.4031054 19.7061958,22.6330072 25.5974998,22.6335242 C31.4888037,22.6340413 36.2643748,27.4049778 36.264375,33.2900476 C36.2535355,39.1720887 31.4820247,43.9372939 25.59375,43.9465714 Z M25.59375,24.0832381 C20.5035831,24.0832381 16.3771875,28.2052671 16.3771875,33.2900476 C16.3771875,38.3748281 20.5035831,42.4968571 25.59375,42.4968571 C30.6839169,42.4968571 34.8103125,38.3748281 34.8103125,33.2900476 C34.8056607,28.2071931 30.6819889,24.0878849 25.59375,24.0832381 Z" id="Shape"></path>
                            <path d="M25.59375,48.911 C18.1335762,48.9096964 11.7131828,43.6443825 10.2589612,36.3350608 C8.80473959,29.025739 12.721702,21.7081133 19.6144302,18.8572773 C26.5071584,16.0064414 34.4559732,18.4163755 38.5997771,24.6132846 C42.743581,30.8101936 41.928292,39.0681896 36.6525,44.3370952 C33.7258727,47.2761794 29.7436324,48.9232361 25.59375,48.911 Z M25.59375,19.1300476 C17.7592668,19.1315992 11.4092772,25.4769655 11.4103126,33.3031584 C11.4113481,41.1293512 17.7630164,47.4730406 25.5974998,47.4725235 C33.4319832,47.4720064 39.7828123,41.1274786 39.7828125,33.3012857 C39.7812627,25.4724524 33.4308742,19.1250117 25.59375,19.1188095 L25.59375,19.1300476 Z" id="Shape"></path>
                            <path d="M25.59375,53.8782381 C15.7597378,53.8779313 7.29544609,46.938221 5.37743726,37.3032713 C3.45942843,27.6683216 8.62191373,18.021696 17.7076382,14.2630445 C26.7933626,10.5043931 37.271735,13.6805899 42.7344286,21.8491476 C48.1971221,30.0177052 47.1226461,40.9034853 40.168125,47.849 C36.3112816,51.7228406 31.0630685,53.8939612 25.59375,53.8782381 Z M25.59375,14.1515714 C16.4551929,14.1526321 8.58992039,20.6019652 6.80780887,29.5555885 C5.02569734,38.5092117 9.82306115,47.4735598 18.2661523,50.9666348 C26.7092435,54.4597099 36.4466789,51.5086979 41.5236919,43.9182411 C46.600705,36.3277843 45.6033582,26.211809 39.1415625,19.7565714 C35.5561491,16.1558809 30.6777886,14.137606 25.59375,14.1515714 Z" id="Shape"></path>
                            <path d="M25.59375,58.8426667 C12.4954344,58.8261149 1.53877944,48.901588 0.244316249,35.8811753 C-1.05014694,22.8607627 7.73840753,10.9773592 20.5776096,8.38760628 C33.4168116,5.79785335 46.1326774,13.3436714 49.9971722,25.8456915 C53.8616671,38.3477115 47.618456,51.7415665 35.5528125,56.8338571 C32.4024602,58.1667166 29.0149991,58.8499901 25.59375,58.8426667 Z M25.59375,9.18714286 C14.084367,9.18965713 4.17942566,17.313149 1.93611155,28.5898456 C-0.307202566,39.8665423 5.73586657,51.1559187 16.3697907,55.5541633 C27.0037148,59.952408 39.2669789,56.2346233 45.6602083,46.6743526 C52.0534378,37.1140818 50.7961379,24.3738308 42.6571875,16.2446667 C38.1412719,11.7099851 31.9968803,9.16863369 25.59375,9.18714286 Z" id="Shape"></path>
                            <path d="M25.59375,34.0149048 C25.2710211,34.016721 24.9858778,33.8053946 24.8940376,33.4963312 C24.8021974,33.1872679 24.9257355,32.8547559 25.1971875,32.680381 L58.246875,11.2071905 C58.4638629,11.0501682 58.7498141,11.0253738 58.9906407,11.1426998 C59.2314673,11.2600257 59.3879717,11.5003757 59.3977122,11.7678556 C59.4074526,12.0353354 59.2688438,12.2864094 59.0371875,12.4209048 L25.97625,33.8969048 C25.8629599,33.972579 25.7300278,34.0135881 25.59375,34.0149048 Z" id="Shape"></path>
                            <polygon id="Shape" points="57.7575 11.5330952 57.3834375 4.49804762 58.7671875 3.599 59.14125 10.6340476 60.5278125 9.73219048 60.15375 2.69995238 61.5403125 1.79809524 61.9115625 8.83314286 63.298125 7.93409524 62.9240625 0.899047619 64.310625 0 64.681875 7.03504762 66.099375 6.11352381 66.8840625 7.31880952 65.4665625 8.24033333 71.7525 11.4319524 70.3659375 12.3338095 64.08 9.13938095 62.69625 10.0384286 68.9821875 13.2328571 67.595625 14.1319048 61.3125 10.9402857 59.9259375 11.8393333 66.211875 15.0337619 64.8253125 15.9328095 58.5421875 12.738381"></polygon>
                        </g>
                    </g>
                </g>
                <path d="M852.5,154 C884.256373,154 910,129.375661 910,99 C910,68.6243388 884.256373,44 852.5,44 C820.743627,44 795,68.6243388 795,99 C795,129.375661 820.743627,154 852.5,154 Z" id="Oval-2" stroke="#979797" stroke-dasharray="5,5"></path>
                <g id="Group-15" transform="translate(806.000000, 62.000000)" fill="#000000" fill-rule="nonzero">
                    <path d="M28.526,54.611 L3.96,54.611 C3.595,54.611 3.299,54.922 3.299,55.306 C3.299,55.688 3.595,56.001 3.96,56.001 L28.813,56.001 C28.81,55.951 28.798,55.904 28.798,55.855 L28.526,54.611 Z" id="Shape"></path>
                    <path d="M26.808,33.798 L28.995,33.798 L29.766,33.798 L64.235,33.798 L65.004,33.798 L67.192,33.798 C68.434,33.798 69.443,34.765 69.516,35.975 L90.559,35.975 C90.308,34.791 89.73,33.048 88.403,31.082 C88.403,31.082 87.805,30.266 86.39,29.722 C86.39,29.722 83.375,28.807 81.946,27.807 C81.946,27.836 81.946,27.866 81.943,27.894 C81.937,28.289 81.893,28.769 81.832,29.268 C81.651,30.751 81.317,32.398 81.317,32.398 C80.875,31.67 80.475,31.188 80.124,30.879 C79.644,30.454 79.248,30.355 78.953,30.385 C78.601,30.422 78.39,30.64 78.326,30.711 C80.259,28.355 80.948,26.34 81.01,26.155 C80.997,26.008 80.992,25.851 81.001,25.683 C81.001,25.683 80.989,25.475 80.971,25.498 C81.525,24.788 81.973,24.195 82.273,23.369 C82.779,22.857 83.041,21.619 83.041,21.619 C83.465,20.43 83.204,19.97 83.003,19.797 C83.311,18.801 83.978,15.995 82.391,14.209 C82.391,14.209 81.412,12.863 78.963,12.374 C78.963,12.374 78.023,11.994 77.647,11.001 C77.647,11.001 76.803,11.11 76.803,11.844 L76.397,11.682 L76.019,11.948 L75.581,11.682 C75.581,11.682 75.42,11.633 75.051,11.763 C75.051,11.763 72.237,12.986 71.421,15.514 C71.421,15.514 70.97,16.586 71.521,19.71 C71.387,19.764 70.798,20.09 71.343,21.618 C71.343,21.618 71.579,22.739 72.039,23.289 C72.298,24.092 72.696,24.868 73.182,25.554 C73.18,25.551 73.177,25.549 73.176,25.546 C73.176,25.546 73.238,25.846 73.18,26.267 C73.294,26.576 74.205,28.96 75.813,30.763 C75.729,30.676 75.552,30.534 75.292,30.489 C75.009,30.441 74.628,30.508 74.158,30.887 C73.783,31.191 73.349,31.692 72.864,32.492 C72.864,32.492 72.465,30.525 72.303,28.955 C72.263,28.579 72.239,28.225 72.236,27.926 C72.236,27.867 72.236,27.811 72.237,27.756 C70.839,28.777 67.722,29.722 67.722,29.722 C66.307,30.266 65.709,31.08 65.709,31.08 C65.318,31.659 65.009,32.208 64.738,32.739 C64.311,31.256 63.541,29.363 62.132,27.276 C62.132,27.276 61.335,26.188 59.45,25.463 C59.45,25.463 55.429,24.243 53.521,22.909 C53.521,22.948 53.521,22.987 53.52,23.025 C53.511,23.55 53.453,24.192 53.371,24.857 C53.129,26.835 52.683,29.031 52.683,29.031 C52.094,28.059 51.563,27.417 51.092,27.005 C50.45,26.439 49.925,26.307 49.53,26.347 C49.061,26.395 48.78,26.687 48.697,26.782 C51.272,23.639 52.19,20.954 52.272,20.707 C52.256,20.511 52.251,20.303 52.262,20.078 C52.262,20.078 52.247,19.802 52.219,19.832 C52.957,18.885 53.557,18.095 53.956,16.993 C54.632,16.311 54.98,14.66 54.98,14.66 C55.545,13.075 55.195,12.461 54.928,12.232 C55.338,10.904 56.228,7.162 54.111,4.78 C54.111,4.78 52.806,2.985 49.543,2.333 C49.543,2.333 48.289,1.826 47.786,0.503 C47.786,0.503 46.662,0.649 46.662,1.627 L46.12,1.41 L45.618,1.764 L45.034,1.41 C45.034,1.41 44.819,1.345 44.326,1.518 C44.326,1.518 40.575,3.149 39.486,6.519 C39.486,6.519 38.884,7.949 39.619,12.115 C39.441,12.186 38.655,12.622 39.381,14.659 C39.381,14.659 39.696,16.154 40.311,16.887 C40.657,17.957 41.186,18.992 41.833,19.907 C41.83,19.903 41.827,19.9 41.824,19.896 C41.824,19.896 41.906,20.296 41.83,20.857 C41.982,21.269 43.2,24.447 45.342,26.85 C45.229,26.736 44.993,26.544 44.646,26.485 C44.27,26.421 43.763,26.51 43.134,27.017 C42.634,27.42 42.056,28.089 41.41,29.158 C41.41,29.158 40.877,26.535 40.661,24.441 C40.608,23.94 40.575,23.468 40.572,23.069 C40.572,22.99 40.572,22.915 40.573,22.841 C38.707,24.202 34.552,25.462 34.552,25.462 C32.667,26.188 31.87,27.274 31.87,27.274 C30.461,29.359 29.69,31.253 29.264,32.736 C28.993,32.207 28.684,31.66 28.296,31.084 C28.296,31.084 27.698,30.268 26.283,29.724 C26.283,29.724 23.268,28.809 21.838,27.809 C21.838,27.838 21.838,27.868 21.836,27.896 C21.829,28.291 21.785,28.771 21.724,29.27 C21.544,30.753 21.21,32.4 21.21,32.4 C20.769,31.672 20.369,31.19 20.017,30.881 C19.536,30.456 19.14,30.357 18.846,30.387 C18.494,30.424 18.283,30.642 18.22,30.713 C20.151,28.357 20.841,26.342 20.903,26.157 C20.89,26.01 20.885,25.853 20.894,25.685 C20.894,25.685 20.883,25.477 20.863,25.5 C21.417,24.79 21.865,24.197 22.166,23.371 C22.671,22.859 22.933,21.621 22.933,21.621 C23.357,20.432 23.096,19.972 22.896,19.799 C23.204,18.803 23.869,15.997 22.283,14.211 C22.283,14.211 21.303,12.865 18.855,12.376 C18.855,12.376 17.915,11.996 17.539,11.003 C17.539,11.003 16.695,11.112 16.695,11.846 L16.288,11.684 L15.91,11.95 L15.473,11.684 C15.473,11.684 15.312,11.635 14.943,11.765 C14.943,11.765 12.129,12.988 11.313,15.516 C11.313,15.516 10.861,16.588 11.413,19.712 C11.279,19.766 10.69,20.092 11.235,21.62 C11.235,21.62 11.472,22.741 11.932,23.291 C12.191,24.094 12.589,24.87 13.075,25.556 C13.073,25.553 13.071,25.551 13.068,25.548 C13.068,25.548 13.13,25.848 13.072,26.269 C13.186,26.578 14.098,28.962 15.706,30.765 C15.621,30.678 15.445,30.536 15.184,30.491 C14.9,30.443 14.52,30.51 14.05,30.889 C13.674,31.193 13.241,31.694 12.756,32.494 C12.756,32.494 12.358,30.527 12.196,28.957 C12.156,28.581 12.132,28.227 12.128,27.928 C12.128,27.869 12.128,27.813 12.13,27.758 C10.73,28.779 7.614,29.724 7.614,29.724 C6.2,30.268 5.603,31.082 5.603,31.082 C4.274,33.048 3.694,34.794 3.446,35.978 L24.493,35.978 C24.579,34.746 25.579,33.798 26.808,33.798 Z" id="Shape"></path>
                    <path d="M17.672,44.648 C17.672,44.646 17.67,44.643 17.67,44.643 C17.668,44.638 17.666,44.634 17.663,44.63 C17.643,44.601 17.619,44.575 17.597,44.549 C17.582,44.532 17.571,44.517 17.557,44.502 C17.544,44.489 17.526,44.476 17.509,44.462 C17.483,44.439 17.459,44.415 17.43,44.397 C17.425,44.392 17.419,44.39 17.414,44.388 C17.325,44.331 17.228,44.288 17.122,44.265 C17.067,44.256 17.008,44.25 16.949,44.25 C16.646,44.25 16.38,44.407 16.226,44.643 C16.138,44.779 16.085,44.939 16.085,45.113 C16.085,45.59 16.471,45.973 16.949,45.973 C17.425,45.973 17.81,45.589 17.81,45.112 C17.81,45.052 17.803,44.995 17.792,44.937 C17.771,44.832 17.729,44.736 17.672,44.648 Z" id="Shape"></path>
                    <path d="M65.188,56.002 L90.04,56.002 C90.406,56.002 90.703,55.691 90.703,55.307 C90.7,54.922 90.406,54.612 90.04,54.612 L65.48,54.612 L65.199,55.897 C65.198,55.934 65.189,55.967 65.188,56.002 Z" id="Shape"></path>
                    <path d="M88.955,54.252 C89.92,54.252 90.707,53.474 90.702,52.548 L93.95,37.707 C93.95,36.751 93.163,35.975 92.196,35.975 L90.557,35.975 L69.515,35.975 C69.442,34.765 68.433,33.798 67.191,33.798 L65.003,33.798 L64.234,33.798 L29.766,33.798 L28.995,33.798 L26.808,33.798 C25.579,33.798 24.579,34.746 24.493,35.975 L3.445,35.975 L1.803,35.975 C0.838,35.975 0.052,36.751 0.054,37.739 L3.297,52.518 C3.297,53.474 4.082,54.252 5.048,54.252 L28.446,54.252 L28.525,54.611 L28.797,55.855 C28.797,55.905 28.809,55.952 28.812,56.001 C28.89,57.206 29.895,58.167 31.133,58.167 L62.866,58.167 C64.116,58.167 65.131,57.187 65.186,56.001 C65.188,55.966 65.197,55.933 65.197,55.896 L65.478,54.611 L65.557,54.252 L88.955,54.252 Z M92.196,36.265 C93.002,36.265 93.66,36.912 93.661,37.677 L90.414,52.518 C90.414,53.313 89.759,53.96 88.955,53.96 L65.621,53.96 L69.494,36.265 L92.196,36.265 Z M5.049,53.96 C4.242,53.96 3.588,53.313 3.585,52.486 L0.342,37.707 C0.342,36.912 0.998,36.265 1.803,36.265 L24.5,36.265 L28.382,53.96 L5.049,53.96 Z M65.087,54.611 L64.815,55.855 C64.815,55.906 64.789,55.951 64.786,56.001 C64.705,56.989 63.89,57.779 62.868,57.779 L31.134,57.779 C30.125,57.779 29.321,57.006 29.219,56.001 C29.213,55.937 29.181,55.881 29.181,55.813 L28.917,54.61 L28.838,54.251 L28.775,53.959 L24.893,36.264 L24.859,36.109 C24.859,36.06 24.883,36.021 24.887,35.974 C24.961,34.98 25.781,34.185 26.807,34.185 L29.907,34.185 L64.091,34.185 L67.19,34.185 C68.23,34.185 69.066,34.998 69.124,35.974 C69.127,36.006 69.145,36.036 69.145,36.068 L69.102,36.264 L65.229,53.96 L65.166,54.252 L65.087,54.611 Z" id="Shape"></path>
                    <path d="M77.055,45.974 C77.531,45.974 77.916,45.59 77.916,45.113 C77.916,45.053 77.91,44.996 77.898,44.938 C77.876,44.833 77.835,44.737 77.778,44.649 C77.778,44.647 77.775,44.644 77.775,44.644 C77.773,44.639 77.77,44.635 77.769,44.631 C77.748,44.602 77.725,44.576 77.703,44.55 C77.687,44.533 77.677,44.518 77.664,44.503 C77.65,44.49 77.633,44.477 77.615,44.463 C77.589,44.44 77.564,44.416 77.536,44.398 C77.53,44.393 77.524,44.391 77.518,44.389 C77.43,44.332 77.333,44.289 77.227,44.266 C77.171,44.257 77.114,44.251 77.054,44.251 C76.75,44.251 76.486,44.408 76.331,44.644 C76.243,44.78 76.19,44.94 76.19,45.114 C76.191,45.59 76.577,45.974 77.055,45.974 Z" id="Shape"></path>
                    <path d="M64.313,58.648 L29.682,58.648 C29.196,58.648 28.801,59.062 28.801,59.574 C28.801,60.084 29.196,60.502 29.682,60.502 L64.313,60.502 C64.8,60.502 65.196,60.088 65.196,59.574 C65.195,59.063 64.801,58.648 64.313,58.648 Z" id="Shape"></path>
                    <path d="M47.966,45.363 C47.966,45.361 47.963,45.358 47.963,45.357 C47.96,45.351 47.957,45.345 47.954,45.339 C47.928,45.3 47.893,45.267 47.864,45.232 C47.845,45.211 47.831,45.189 47.811,45.17 C47.793,45.151 47.77,45.134 47.748,45.116 C47.713,45.085 47.679,45.053 47.642,45.028 C47.635,45.022 47.628,45.018 47.621,45.016 C47.503,44.94 47.373,44.883 47.231,44.853 C47.158,44.84 47.08,44.832 47.001,44.832 C46.597,44.832 46.242,45.041 46.037,45.356 C45.919,45.537 45.849,45.75 45.849,45.982 C45.849,46.616 46.363,47.128 47,47.128 C47.635,47.128 48.148,46.615 48.148,45.98 C48.148,45.9 48.139,45.825 48.127,45.748 C48.096,45.609 48.042,45.48 47.966,45.363 Z" id="Shape"></path>
                </g>
                <path d="M121,99 L151.504098,99" id="Line" stroke="#060606" stroke-width="2" fill="#000000" style="mix-blend-mode: darken;" stroke-linecap="square"></path>
                <path id="Line-decoration-1" d="M151.504098,99 L140.704098,96 L140.704098,102 L151.504098,99 Z" stroke="#060606" stroke-width="2" fill="#000000" style="mix-blend-mode: darken;" stroke-linecap="square"></path>
                <path d="M280,99 L310.504098,99" id="Line" stroke="#060606" stroke-width="2" fill="#000000" style="mix-blend-mode: darken;" stroke-linecap="square"></path>
                <path id="Line-decoration-1" d="M310.504098,99 L299.704098,96 L299.704098,102 L310.504098,99 Z" stroke="#060606" stroke-width="2" fill="#000000" style="mix-blend-mode: darken;" stroke-linecap="square"></path>
                <path d="M439,99 L469.504098,99" id="Line" stroke="#060606" stroke-width="2" fill="#000000" style="mix-blend-mode: darken;" stroke-linecap="square"></path>
                <path id="Line-decoration-1" d="M469.504098,99 L458.704098,96 L458.704098,102 L469.504098,99 Z" stroke="#060606" stroke-width="2" fill="#000000" style="mix-blend-mode: darken;" stroke-linecap="square"></path>
                <path d="M599.446997,8 L788.5,8" id="Line" stroke="#000000" fill="#000000" style="mix-blend-mode: darken;" stroke-linecap="square" stroke-dasharray="5"></path>
                <path id="Line-decoration-1" d="M788.5,8 L777.7,5 L777.7,11 L788.5,8 Z" stroke="#000000" fill="#000000" style="mix-blend-mode: darken;" stroke-linecap="square" stroke-dasharray="5"></path>
                <path d="M604.482246,189 L780.512351,189" id="Line" stroke="#000000" fill="#000000" style="mix-blend-mode: darken;" stroke-linecap="square" stroke-dasharray="5" transform="translate(692.500000, 189.500000) rotate(-180.000000) translate(-692.500000, -189.500000) "></path>
                <path id="Line-decoration-1" d="M780.512351,189 L769.712351,186 L769.712351,192 L780.512351,189 Z" stroke="#000000" fill="#000000" style="mix-blend-mode: darken;" stroke-linecap="square" stroke-dasharray="5"></path>
                <path d="M524,44.5 L842,44.5" id="Line-2" stroke="#979797" stroke-linecap="square" stroke-dasharray="5"></path>
                <text id="1" font-family="AvenirNext-Bold, Avenir Next" font-size="50" font-weight="bold" fill="#BABABB">
                    <tspan x="41" y="57">1</tspan>
                </text>
                <text id="2" font-family="AvenirNext-Bold, Avenir Next" font-size="50" font-weight="bold" fill="#BABABB">
                    <tspan x="196" y="57">2</tspan>
                </text>
                <text id="3" font-family="AvenirNext-Bold, Avenir Next" font-size="50" font-weight="bold" fill="#BABABB">
                    <tspan x="359" y="57">3</tspan>
                </text>
                <text id="4" font-family="AvenirNext-Bold, Avenir Next" font-size="50" font-weight="bold" fill="#BABABB">
                    <tspan x="517" y="57">4</tspan>
                </text>
                <text id="5" font-family="AvenirNext-Bold, Avenir Next" font-size="50" font-weight="bold" fill="#BABABB">
                    <tspan x="676" y="57">5</tspan>
                </text>
                <text id="6" font-family="AvenirNext-Bold, Avenir Next" font-size="50" font-weight="bold" fill="#BABABB">
                    <tspan x="836" y="57">6</tspan>
                </text>
                <text id="Validate-&amp;-Iterate" font-family="AvenirNext-Bold, Avenir Next" font-size="16" font-weight="bold" fill="#3D3D41">
                    <tspan x="646" y="182">Validate &amp; Iterate</tspan>
                </text>
                <path d="M531,153.5 L849,153.5" id="Line-2" stroke="#979797" stroke-linecap="square" stroke-dasharray="5"></path>
                <polygon id="Triangle" fill="#979797" transform="translate(588.702023, 114.994916) rotate(195.000000) translate(-588.702023, -114.994916) " points="588.702023 109.494916 595.202023 120.494916 582.202023 120.494916"></polygon>
                <polygon id="Triangle" fill="#979797" transform="translate(747.702023, 113.994916) rotate(195.000000) translate(-747.702023, -113.994916) " points="747.702023 108.494916 754.202023 119.494916 741.202023 119.494916"></polygon>
                <polygon id="Triangle" fill="#979797" transform="translate(907.702023, 113.994916) rotate(195.000000) translate(-907.702023, -113.994916) " points="907.702023 108.494916 914.202023 119.494916 901.202023 119.494916"></polygon>
                <polygon id="Triangle" fill="#979797" transform="translate(800.132303, 77.602529) rotate(383.000000) translate(-800.132303, -77.602529) " points="800.132303 72.102529 806.632303 83.102529 793.632303 83.102529"></polygon>
                <polygon id="Triangle" fill="#979797" transform="translate(640.132303, 77.602529) rotate(383.000000) translate(-640.132303, -77.602529) " points="640.132303 72.102529 646.632303 83.102529 633.632303 83.102529"></polygon>
                <polygon id="Triangle" fill="#171717" points="791 8 777 16 777 0"></polygon>
                <polygon id="Triangle" fill="#171717" points="472 99 457 107 457 91"></polygon>
                <polygon id="Triangle" fill="#171717" points="313 99 298 107 298 91"></polygon>
                <polygon id="Triangle" fill="#171717" points="154 99 139 107 139 91"></polygon>
                <polygon id="Triangle" fill="#171717" transform="translate(609.000000, 190.000000) rotate(180.000000) translate(-609.000000, -190.000000) " points="616 190 602 198 602 182"></polygon>
                <polygon id="Triangle" fill="#979797" transform="translate(481.132303, 77.602529) rotate(383.000000) translate(-481.132303, -77.602529) " points="481.132303 72.102529 487.632303 83.102529 474.632303 83.102529"></polygon>
            </g>
        </g>
    </g>
</svg>